<svg width="112" height="96" viewBox="0 0 112 96" fill="none" xmlns="http://www.w3.org/2000/svg">
<path opacity="0.43" d="M99.8873 17.85L32.0608 0.542299C28.206 -0.441337 24.1184 0.146599 20.6972 2.17677C17.276 4.20693 14.8013 7.51303 13.8177 11.3678L1.45501 59.8153C0.471373 63.67 1.05931 67.7576 3.08948 71.1789C5.11964 74.6001 8.42574 77.0747 12.2805 78.0584L80.107 95.3661C83.9618 96.3497 88.0493 95.7618 91.4706 93.7316C94.8918 91.7015 97.3665 88.3954 98.3501 84.5407L110.713 36.0931C111.696 32.2384 111.108 28.1508 109.078 24.7296C107.048 21.3083 103.742 18.8337 99.8873 17.85ZM97.4148 27.5396L60.3978 41.1599C59.5528 41.3971 58.6602 41.4078 57.8097 41.1908C56.9593 40.9738 56.181 40.5368 55.553 39.9236L29.5882 10.2318L97.4148 27.5396Z" fill="white"/>
</svg>
