<svg width="277" height="209" viewBox="0 0 277 209" fill="none" xmlns="http://www.w3.org/2000/svg">
<g opacity="0.5">
<path opacity="0.05" fill-rule="evenodd" clip-rule="evenodd" d="M165.064 282.048C152.764 293.08 133.859 292.089 122.779 279.832L42.1962 190.686C31.0549 178.361 32.0524 159.328 44.421 148.235L133.936 67.9522C146.236 56.9203 165.141 57.9111 176.221 70.1683L256.804 159.314C267.945 171.639 266.948 190.672 254.579 201.765L165.064 282.048Z" fill="#1849C6"/>
<path opacity="0.0535017" fill-rule="evenodd" clip-rule="evenodd" d="M103.872 178.956C96.484 185.608 85.1026 185.011 78.4507 177.623L12.0444 103.872C5.39244 96.484 5.98891 85.1026 13.3766 78.4507L87.1283 12.0444C94.516 5.39244 105.897 5.98891 112.549 13.3766L178.956 87.1283C185.608 94.516 185.011 105.897 177.623 112.549L103.872 178.956Z" fill="#1849C6"/>
</g>
</svg>
