<svg width="277" height="209" viewBox="0 0 277 209" fill="none" xmlns="http://www.w3.org/2000/svg">
<g opacity="0.5">
<path opacity="0.05" fill-rule="evenodd" clip-rule="evenodd" d="M111.936 282.048C124.236 293.08 143.141 292.089 154.221 279.832L234.804 190.686C245.945 178.361 244.948 159.328 232.579 148.235L143.064 67.9522C130.764 56.9203 111.859 57.9111 100.779 70.1683L20.1962 159.314C9.05495 171.639 10.0524 190.672 22.421 201.765L111.936 282.048Z" fill="#1849C6"/>
<path opacity="0.0535017" fill-rule="evenodd" clip-rule="evenodd" d="M173.128 178.956C180.516 185.608 191.897 185.011 198.549 177.623L264.956 103.872C271.608 96.484 271.011 85.1026 263.623 78.4507L189.872 12.0444C182.484 5.39244 171.103 5.98891 164.451 13.3766L98.0444 87.1283C91.3924 94.516 91.9889 105.897 99.3766 112.549L173.128 178.956Z" fill="#1849C6"/>
</g>
</svg>
