<svg width="16" height="22" viewBox="0 0 16 22" fill="none" xmlns="http://www.w3.org/2000/svg">
<path d="M14.5455 8.76672C14.5455 7.03076 13.8558 5.3659 12.6283 4.13839C11.4008 2.91088 9.73596 2.22127 8 2.22127C6.26404 2.22127 4.59918 2.91088 3.37166 4.13839C2.14415 5.3659 1.45455 7.03076 1.45455 8.76672C1.45455 11.4518 3.60291 14.9515 8 19.1435C12.3971 14.9515 14.5455 11.4518 14.5455 8.76672ZM8 21.1304C2.66618 16.2824 0 12.1602 0 8.76672C0 6.64499 0.842855 4.61016 2.34315 3.10987C3.84344 1.60958 5.87827 0.766724 8 0.766724C10.1217 0.766724 12.1566 1.60958 13.6569 3.10987C15.1571 4.61016 16 6.64499 16 8.76672C16 12.1602 13.3338 16.2824 8 21.1304Z" fill="#000103" fill-opacity="0.7"/>
<path d="M7.99989 10.9485C8.57854 10.9485 9.1335 10.7186 9.54267 10.3095C9.95184 9.90028 10.1817 9.34533 10.1817 8.76667C10.1817 8.18802 9.95184 7.63307 9.54267 7.22389C9.1335 6.81472 8.57854 6.58486 7.99989 6.58486C7.42123 6.58486 6.86628 6.81472 6.45711 7.22389C6.04794 7.63307 5.81807 8.18802 5.81807 8.76667C5.81807 9.34533 6.04794 9.90028 6.45711 10.3095C6.86628 10.7186 7.42123 10.9485 7.99989 10.9485ZM7.99989 12.403C7.03547 12.403 6.11054 12.0199 5.42859 11.338C4.74664 10.656 4.36353 9.7311 4.36353 8.76667C4.36353 7.80225 4.74664 6.87733 5.42859 6.19538C6.11054 5.51343 7.03547 5.13031 7.99989 5.13031C8.96431 5.13031 9.88924 5.51343 10.5712 6.19538C11.2531 6.87733 11.6363 7.80225 11.6363 8.76667C11.6363 9.7311 11.2531 10.656 10.5712 11.338C9.88924 12.0199 8.96431 12.403 7.99989 12.403Z" fill="#000103" fill-opacity="0.7"/>
</svg>
