<svg width="20" height="17" viewBox="0 0 20 17" fill="none" xmlns="http://www.w3.org/2000/svg">
<path d="M3.57156 4.69544C3.57156 4.03237 3.83496 3.39646 4.30382 2.92761C4.77267 2.45875 5.40858 2.19535 6.07165 2.19535C6.73471 2.19535 7.37062 2.45875 7.83947 2.92761C8.30833 3.39646 8.57173 4.03237 8.57173 4.69544C8.57173 5.3585 8.30833 5.99441 7.83947 6.46326C7.37062 6.93212 6.73471 7.19552 6.07165 7.19552C5.40858 7.19552 4.77267 6.93212 4.30382 6.46326C3.83496 5.99441 3.57156 5.3585 3.57156 4.69544ZM6.07165 0.766724C5.02969 0.766724 4.0304 1.18064 3.29363 1.91742C2.55685 2.65419 2.14293 3.65348 2.14293 4.69544C2.14293 5.73739 2.55685 6.73668 3.29363 7.47345C4.0304 8.21023 5.02969 8.62415 6.07165 8.62415C7.1136 8.62415 8.11289 8.21023 8.84966 7.47345C9.58644 6.73668 10.0004 5.73739 10.0004 4.69544C10.0004 3.65348 9.58644 2.65419 8.84966 1.91742C8.11289 1.18064 7.1136 0.766724 6.07165 0.766724ZM13.5719 5.7669C13.5719 5.38801 13.7224 5.02463 13.9903 4.75671C14.2583 4.4888 14.6216 4.33828 15.0005 4.33828C15.3794 4.33828 15.7428 4.4888 16.0107 4.75671C16.2786 5.02463 16.4292 5.38801 16.4292 5.7669C16.4292 6.1458 16.2786 6.50917 16.0107 6.77709C15.7428 7.04501 15.3794 7.19552 15.0005 7.19552C14.6216 7.19552 14.2583 7.04501 13.9903 6.77709C13.7224 6.50917 13.5719 6.1458 13.5719 5.7669ZM15.0005 2.90966C14.2427 2.90966 13.516 3.21069 12.9802 3.74652C12.4443 4.28236 12.1433 5.00911 12.1433 5.7669C12.1433 6.52469 12.4443 7.25144 12.9802 7.78728C13.516 8.32312 14.2427 8.62415 15.0005 8.62415C15.7583 8.62415 16.4851 8.32312 17.0209 7.78728C17.5567 7.25144 17.8578 6.52469 17.8578 5.7669C17.8578 5.00911 17.5567 4.28236 17.0209 3.74652C16.4851 3.21069 15.7583 2.90966 15.0005 2.90966ZM0 12.1957C0 11.6274 0.225773 11.0823 0.627651 10.6804C1.02953 10.2785 1.57459 10.0528 2.14293 10.0528H10.0004C10.5687 10.0528 11.1138 10.2785 11.5156 10.6804C11.9175 11.0823 12.1433 11.6274 12.1433 12.1957V12.3571C12.1419 12.4238 12.1371 12.4903 12.129 12.5564C12.1147 12.68 12.0883 12.8479 12.0361 13.0464C11.8989 13.5703 11.6561 14.0606 11.3225 14.4872C10.4868 15.5601 8.9146 16.4816 6.07165 16.4816C3.22869 16.4816 1.6572 15.5601 0.820744 14.4872C0.486953 14.0606 0.243874 13.5704 0.106432 13.0464C0.0518718 12.8363 0.0169585 12.6216 0.00214295 12.405C0.00145237 12.389 0.000976056 12.3731 0.000714259 12.3571V12.3407L0 12.335V12.1957ZM1.42862 12.3228V12.3314C1.43852 12.4515 1.45884 12.5706 1.48934 12.6871C1.55363 12.9357 1.68435 13.2715 1.94721 13.6093C2.4508 14.2551 3.55727 15.0529 6.07165 15.0529C8.58602 15.0529 9.6932 14.2551 10.1961 13.61C10.4096 13.3367 10.5652 13.0227 10.6532 12.6871C10.684 12.5706 10.7045 12.4516 10.7147 12.3314L10.7154 12.3228V12.1957C10.7154 12.0063 10.6401 11.8246 10.5062 11.6906C10.3722 11.5566 10.1905 11.4814 10.0011 11.4814H2.14293C1.95349 11.4814 1.7718 11.5566 1.63784 11.6906C1.50388 11.8246 1.42862 12.0063 1.42862 12.1957V12.3228ZM12.484 14.6901C13.1483 14.9158 13.9748 15.0529 15.0005 15.0529C17.287 15.0529 18.5864 14.3722 19.2957 13.535C19.6407 13.1279 19.8171 12.715 19.9064 12.3979C19.9546 12.2278 19.9854 12.0534 19.9986 11.8771L19.9993 11.8514L20 11.8357V11.8085C20.0001 11.5779 19.9547 11.3496 19.8665 11.1365C19.7783 10.9235 19.649 10.7299 19.486 10.5668C19.3229 10.4038 19.1293 10.2744 18.9162 10.1862C18.7032 10.098 18.4748 10.0527 18.2442 10.0528H12.3947C12.7519 10.4521 13.0112 10.9407 13.134 11.4814H18.2442C18.4228 11.4814 18.5671 11.6235 18.5714 11.8C18.5644 11.871 18.551 11.9413 18.5314 12.01C18.4871 12.1671 18.3957 12.3871 18.2049 12.6121C17.8435 13.04 16.9999 13.6243 15.0005 13.6243C14.1684 13.6243 13.5369 13.5229 13.0569 13.3743C12.9298 13.838 12.7369 14.2811 12.484 14.6901Z" fill="#000103" fill-opacity="0.7"/>
</svg>
