<svg width="16" height="17" viewBox="0 0 16 17" fill="none" xmlns="http://www.w3.org/2000/svg">
<path d="M3.25 0.334595C2.38805 0.334595 1.5614 0.677004 0.951903 1.2865C0.34241 1.89599 0 2.72264 0 3.58459V6.58459C4.19176e-09 6.78351 0.0790175 6.97427 0.21967 7.11492C0.360322 7.25558 0.551088 7.33459 0.75 7.33459C0.948912 7.33459 1.13968 7.25558 1.28033 7.11492C1.42098 6.97427 1.5 6.78351 1.5 6.58459V3.58459C1.5 2.61859 2.284 1.83459 3.25 1.83459H6.25C6.44891 1.83459 6.63968 1.75558 6.78033 1.61493C6.92098 1.47427 7 1.28351 7 1.08459C7 0.885682 6.92098 0.694917 6.78033 0.554265C6.63968 0.413612 6.44891 0.334595 6.25 0.334595H3.25ZM9.75 0.334595C9.55109 0.334595 9.36032 0.413612 9.21967 0.554265C9.07902 0.694917 9 0.885682 9 1.08459C9 1.28351 9.07902 1.47427 9.21967 1.61493C9.36032 1.75558 9.55109 1.83459 9.75 1.83459H12.75C13.716 1.83459 14.5 2.61859 14.5 3.58459V6.58459C14.5 6.78351 14.579 6.97427 14.7197 7.11492C14.8603 7.25558 15.0511 7.33459 15.25 7.33459C15.4489 7.33459 15.6397 7.25558 15.7803 7.11492C15.921 6.97427 16 6.78351 16 6.58459V3.58459C16 2.72264 15.6576 1.89599 15.0481 1.2865C14.4386 0.677004 13.612 0.334595 12.75 0.334595H9.75ZM0.75 9.33459C0.948912 9.33459 1.13968 9.41361 1.28033 9.55427C1.42098 9.69492 1.5 9.88568 1.5 10.0846V13.0846C1.5 14.0506 2.284 14.8346 3.25 14.8346H6.25C6.44891 14.8346 6.63968 14.9136 6.78033 15.0543C6.92098 15.1949 7 15.3857 7 15.5846C7 15.7835 6.92098 15.9743 6.78033 16.1149C6.63968 16.2556 6.44891 16.3346 6.25 16.3346H3.25C2.38805 16.3346 1.5614 15.9922 0.951903 15.3827C0.34241 14.7732 0 13.9465 0 13.0846V10.0846C0 9.88568 0.0790175 9.69492 0.21967 9.55427C0.360322 9.41361 0.551088 9.33459 0.75 9.33459ZM16 10.0846C16 9.88568 15.921 9.69492 15.7803 9.55427C15.6397 9.41361 15.4489 9.33459 15.25 9.33459C15.0511 9.33459 14.8603 9.41361 14.7197 9.55427C14.579 9.69492 14.5 9.88568 14.5 10.0846V13.0846C14.5 13.5487 14.3156 13.9938 13.9874 14.322C13.6592 14.6502 13.2141 14.8346 12.75 14.8346H9.75C9.55109 14.8346 9.36032 14.9136 9.21967 15.0543C9.07902 15.1949 9 15.3857 9 15.5846C9 15.7835 9.07902 15.9743 9.21967 16.1149C9.36032 16.2556 9.55109 16.3346 9.75 16.3346H12.75C13.612 16.3346 14.4386 15.9922 15.0481 15.3827C15.6576 14.7732 16 13.9465 16 13.0846V10.0846Z" fill="#000103" fill-opacity="0.7"/>
</svg>
