<svg width="20" height="18" viewBox="0 0 20 18" fill="none" xmlns="http://www.w3.org/2000/svg">
<path d="M5 5.73596V2.73596C5 2.20553 5.21071 1.69682 5.58579 1.32175C5.96086 0.946676 6.46957 0.735962 7 0.735962H17C17.5304 0.735962 18.0391 0.946676 18.4142 1.32175C18.7893 1.69682 19 2.20553 19 2.73596V14.736C19 15.2664 18.7893 15.7751 18.4142 16.1502C18.0391 16.5252 17.5304 16.736 17 16.736H11M11 16.736V10.564C10.9999 10.0336 10.7891 9.52495 10.414 9.14996L7.414 6.14996C7.03894 5.77502 6.53033 5.56439 6 5.56439C5.46967 5.56439 4.96106 5.77502 4.586 6.14996L1.586 9.14996C1.2109 9.52495 1.00011 10.0336 1 10.564V14.736C1 15.2664 1.21071 15.7751 1.58579 16.1502C1.96086 16.5252 2.46957 16.736 3 16.736H6M11 16.736H6M6 12.736V16.736M15.001 4.73596H15M11.001 4.73596H11M15.001 8.73596H15M15.001 12.736H15" stroke="black" stroke-width="1.2" stroke-linecap="round" stroke-linejoin="round"/>
</svg>
